<?xml version="1.0" encoding="UTF-8"?><svg id="_레이어_2" xmlns="http://www.w3.org/2000/svg" viewBox="0 0 340.16 287.16"><defs><style>.cls-1{fill:#002855;}.cls-2{fill:#1f3890;}.cls-3{fill:#e60012;}.cls-4{fill:#e61219;}</style></defs><g id="Layer_1"><g><g><path class="cls-3" d="M177.33,173.47c-.26-.25-.49-.53-.68-.82-2.06-2.77-3.43-6.08-3.97-9.59-.98,.26-2.21,.52-3.72,.68-.95,.1-2,.17-3.15,.17-1.99,0-3.88-.38-5.6-1.03-1.38-.45-2.7-1.17-3.88-2.26-2.75-2.24-4.48-5.44-4.48-9,0-1.29,.23-2.53,.64-3.69,.14-.44,.3-.87,.5-1.29,1.02-2.18,2.84-4,5.12-5.26,2.21-1.29,4.86-2.05,7.71-2.05,2.33,0,4.52,.51,6.45,1.4,2.61,1.01,4.74,2.42,6.22,3.57,2.56-2.57,5.78-4.33,9.36-4.93-.02-.02-.03-.03-.05-.05-.06-.06-.14-.14-.2-.21-.12-.12-.24-.25-.39-.4-.09-.1-.22-.21-.32-.32-.15-.15-.3-.29-.48-.47-.13-.12-.29-.26-.43-.39-.19-.17-.37-.34-.59-.53-.16-.15-.35-.3-.53-.45-.22-.19-.44-.37-.69-.57-.2-.16-.42-.32-.63-.48-.26-.2-.51-.4-.79-.61-.23-.17-.47-.34-.72-.51-.29-.2-.57-.4-.88-.61-.26-.17-.54-.34-.81-.52-.32-.2-.64-.4-.97-.6-.29-.17-.6-.34-.91-.51-.35-.19-.69-.38-1.05-.57-.32-.16-.66-.32-.99-.47-.38-.18-.75-.36-1.14-.52-.35-.15-.71-.29-1.07-.43-.4-.16-.81-.31-1.23-.46-.38-.13-.77-.24-1.15-.36-.43-.13-.86-.26-1.3-.38-.4-.1-.82-.19-1.23-.28-.45-.1-.91-.2-1.37-.28-.43-.07-.86-.13-1.3-.18-.48-.06-.96-.12-1.45-.16-.45-.03-.91-.05-1.36-.06-.67-.02-1.35-.05-2.05-.03-.01,0-.13,0-.31,0-.09,0-.17,0-.3,0-.03,0-.07,0-.09,0-.16,0-.34,0-.56,0-.08,0-.18,0-.26,.02-.18,0-.38,.02-.59,.03-.12,0-.24,.02-.38,.03-.21,.02-.43,.04-.66,.07-.14,.02-.3,.04-.46,.06-.24,.03-.49,.07-.74,.11-.17,.03-.34,.06-.52,.09-.27,.05-.56,.11-.84,.18-.18,.04-.35,.08-.54,.12-.32,.08-.67,.18-1.01,.28-.16,.05-.31,.08-.47,.13-.51,.16-1.02,.34-1.55,.54-.04,.02-.09,.04-.14,.06-.48,.19-.96,.4-1.45,.63-.17,.08-.35,.18-.53,.27-.36,.18-.73,.37-1.09,.58-.21,.12-.42,.25-.63,.38-.34,.2-.68,.42-1.02,.65-.22,.15-.44,.31-.65,.47-.33,.24-.66,.5-.98,.77-.22,.18-.43,.36-.65,.55-.33,.29-.65,.6-.97,.92-.2,.2-.4,.4-.6,.61-.34,.37-.67,.77-1,1.17-.16,.2-.33,.39-.49,.6-.48,.63-.95,1.3-1.4,2.02-1.18,1.91-2.33,5.06-2.88,8.73-.16,1.05-.27,2.14-.32,3.26-.12,2.8,.13,5.76,.98,8.63,.34,1.14,.77,2.28,1.3,3.38,.3,.62,.63,1.22,.97,1.79,.12,.2,.26,.38,.38,.58,.24,.37,.47,.74,.73,1.1,.17,.23,.35,.45,.53,.67,.23,.3,.46,.61,.7,.9,.19,.22,.39,.42,.59,.64,.25,.27,.48,.55,.74,.81,.22,.22,.45,.42,.68,.63,.24,.23,.48,.47,.74,.69,.23,.2,.47,.39,.71,.58,.26,.21,.51,.43,.77,.63,.25,.19,.5,.36,.75,.53,.26,.19,.52,.38,.8,.56,.26,.17,.52,.32,.79,.49,.27,.17,.53,.33,.8,.49,.27,.15,.54,.29,.81,.43,.27,.15,.54,.3,.81,.43,.27,.13,.54,.25,.81,.37,.28,.13,.55,.26,.83,.38,.27,.11,.54,.21,.81,.31,.27,.11,.55,.22,.83,.32,.27,.1,.54,.17,.81,.26,.27,.08,.55,.18,.82,.25,.27,.08,.52,.13,.79,.2,.26,.07,.53,.15,.79,.2,.26,.05,.51,.09,.77,.14,.26,.05,.52,.1,.77,.14,.25,.04,.49,.06,.73,.09,.25,.03,.51,.07,.75,.08,.24,.02,.46,.02,.69,.03,.26,.01,.53,.03,.78,.03,2.91-.02,5.48-.48,7.28-.93,3.27-.83,5.8-2.09,7.43-3.08-.18-.17-.35-.33-.48-.46-.04-.04-.09-.08-.12-.11Z"/><path class="cls-2" d="M158.07,107.55c-2.3,0-4.56,.15-6.77,.41-7.49,.9-14.37,3.29-20.16,7.07-2.82,1.85-6.42,5.21-9.82,9.69-4.97,6.54-9.5,15.48-10.53,25.7-1.15,11.41,2.41,21.83,10.53,31.03,.81,.91,1.65,1.82,2.55,2.72,7.98,7.9,17.19,12.55,27.43,13.88,2.06,.27,4.16,.42,6.3,.42,19.52,0,29.22-6.14,35.41-10.57,.51-.37,.8-.91,.84-1.44-4.03-2.56-7.86-5.33-11.39-8.31-.09-.08-.31-.28-.59-.52-.35,.16-.71,.31-1.08,.46-.06,.04-.11,.09-.16,.13-1.88,1.15-4.95,2.72-8.92,3.72-1.1,.28-2.58,.59-4.3,.81-1.41,.28-2.77,.45-4.03,.45-16.8,0-30.67-8.45-33.63-24-2-10.69,1.21-20.46,6.35-26.63,5.18-6.23,14.14-9.81,24.59-9.81,2.46,0,4.85,.2,7.11,.6,.13,.02,.27,.07,.39,.09,9.36,1.44,16.41,6.31,20.35,9.75,.29,.2,.59,.4,.87,.6,.51-1.4,1.32-2.71,2.48-3.79,.81-.75,1.61-1.52,2.28-2.17,.01-.56,.02-1.32,.03-2.34v-6.5c-9.93-7.1-22.77-11.42-36.15-11.42Z"/><path class="cls-4" d="M307.03,123.24c-2.16-2.66-4.61-5.09-7.28-7.22-1.2-1.06-2.35-1.96-3.38-2.64-2.87-1.87-6-3.4-9.34-4.58-3.2-1.2-6.55-2.03-9.98-2.46-1.15-.14-2.31-.24-3.48-.29-1.36-.1-2.74-.16-4.13-.16-12.1,0-25.41,4.61-35.3,10.81v14.3c0,.82-.19,1.63-.58,2.35,6.68-4.69,18.12-10.21,26.14-11.66,2.26-.4,5.54-.64,7.99-.64,10.45,0,18.53,3.61,23.71,9.84,5.14,6.18,8.34,15.94,6.35,26.64-2.96,15.55-16.83,23.99-33.62,23.99-6.3,0-11.62-1.47-17.34-3.94-2.68,3.91-5.69,7.68-8.99,11.29,7.81,4.16,19.2,7.94,32.12,7.94,1.44,0,2.86-.07,4.26-.19,.68,0,1.35-.03,2.02-.06,12.37-.66,23.36-6.8,30.84-16.15,6.3-7.88,10.1-18.05,10.1-29.15s-3.86-20.31-10.1-28.01Z"/><path class="cls-2" d="M265.17,126.36c-.07,0-.12,0-.19,0-16.32,.24-27.31,11.2-27.42,11.31l-.86,1.02c.36,.21,.7,.41,1.07,.62l.29,.16,.15,.08c4.12,2.28,6.57,3.6,9.77,4.78,1.96-1.87,6.61-5.65,13.16-5.99,0,0,6.21-.69,10.59,2.23,1.71,1.15,3.09,2.6,3.95,4.28,1.28,2.5,1.36,5.32,.31,8.28-.47,1.56-1.26,3-2.31,4.25-.04,.05-.09,.11-.13,.16-.07,.08-.13,.15-.2,.23-1.12,1.29-2.4,2.21-3.77,2.85-1.96,1-4.23,1.57-6.7,1.57-2.16,0-4.67-.52-7.06-1.37-.96,4.57-3.49,8.74-8.11,11.31,1.82,.9,5.37,2.45,9.66,3.41,1.8,.41,4.32,.8,7.19,.83,.21,0,.4-.02,.62-.02,6.11,0,11.73-2.09,16.13-5.56,2.84-2.37,5.44-5.64,7.51-10.18,.74-1.63,1.27-3.29,1.63-4.96,.25-1.4,.41-2.84,.41-4.32,0-13.81-10.64-25.35-25.69-25.01Z"/></g><g><path class="cls-1" d="M337.56,229.6c-4.75,.6-11.16,1.91-18.88,3.58-6.09,1.31-12.99,2.84-20.56,4.42-21.42,4.47-48.08,9.28-76.23,10.47-2.97,.05-5.99,.08-9.1,.08-7.98,0-15.48-.18-22.56-.5-.71-.03-1.38-.08-2.07-.12-3.61-.29-7.21-.64-10.81-1.1-40.49-5.17-61.9-10.48-70.4-27.47-1.24-2.48-3.52-7.14-3.52-12,0-.28-.06-56.11-.06-56.11v-2.3c0-.12-.04-.21-.06-.33-.15-2.37-.78-4.61-1.83-6.61-1.96-3.71-5.3-6.56-9.33-7.92-.03-.01-.06-.02-.09-.03,3.61-3.84,6.51-8.35,8.47-13.35,1.82-4.67,2.85-9.73,2.85-15.04V26.41c0-1.27-1.02-2.3-2.29-2.3l-.63,.08c-.93,.15-1.9,.28-2.9,.39-2.83,.32-5.92,.51-9.15,.51s-6.4-.19-9.27-.52c-.95-.11-1.89-.23-2.78-.38l-.64-.09c-1.27,0-2.3,1.03-2.3,2.3v24.67L27.65,28.7c-.96-.45-2.11-.03-2.56,.93l-.17,.52c-.22,.73-.46,1.48-.71,2.25-.77,2.3-1.75,4.74-2.92,7.23-1.16,2.46-2.4,4.74-3.66,6.78-.44,.72-.89,1.41-1.34,2.07l-.29,.45c-.45,.96-.04,2.12,.93,2.57l6.08,2.87,.36,.16,6.82,3.22,30.12,14.59h-23.72c-.62,0-1.17,.37-1.41,.94-.4,.97-.83,1.95-1.32,2.95-2.88,5.89-6.85,11.55-11.79,16.82-5.42,5.59-11.62,10.27-18.37,13.87-.96,.47-1.86,.89-2.78,1.3-.5,.23-.84,.67-.92,1.23-.07,.53,.13,1.04,.54,1.38l18.54,15.55c.29,.25,.65,.37,1.03,.37l.55-.05,.31-.21c12.46-8.32,24.55-18.51,32.08-30.29,5.07-7.92,9.07-14.5,12.03-21.55l6.35,3.07,1.98,.93v26.64c0,10.59-4,20.21-10.54,27.53H25.71c-1.07,0-1.94,.86-1.94,1.93l.08,.54c.07,.46,.13,.95,.19,1.43,.17,1.42,.38,3.78,.5,6.77,.03,.65,.04,1.36,.05,2.07,0,2.67-.16,5.21-.42,7.55-.1,.84-.2,1.66-.33,2.44l-.07,.53c0,.39,.15,.74,.36,1.04,.34,.53,.91,.89,1.58,.89h45.48c1.23,0,2.23,.99,2.23,2.22v52.74c0,1.06-.7,1.98-1.73,2.24-10.07,2.6-63.48,16.33-58.34,29.08,4.96,12.3,18.92,35.81,22.5,41.76,.51,.85,1.49,1.27,2.46,1.05,6.37-1.46,30.55-8.03,55.75-28.49,1.16-.94,.91-2.49-.05-3.62-3.27-3.84-4.68-5.96-7.71-12.88-.59-1.35-2.06-2.06-3.34-1.33l-26.48,14.97c-1.16,.65-2.61,.21-3.21-.97-.56-1.11-.14-2.48,.95-3.07l31.08-17.07c2.34,3.61,5.28,7.17,8.74,10.56,.81,.86,1.67,1.68,2.6,2.43,6.37,5.68,14.23,10.8,23.2,14.83,.14,.07,.3,.13,.44,.2,15.87,7.64,43.16,12.8,82.75,13.53,26.41,1.01,63.76,.9,119.18-.81,.95-.03,1.8-.63,2.12-1.53,1.06-3,2.86-12.38,5.84-20.7,2.92-8.17,7.01-15.26,9.71-20.14,.91-1.66-.42-3.64-2.3-3.4Z"/><path class="cls-1" d="M123.62,230.96l.65-.09c.89-.14,1.82-.27,2.78-.38,2.87-.33,5.99-.52,9.27-.52s6.32,.18,9.15,.51c1,.12,1.98,.24,2.91,.39l.63,.09c1.27,0,2.3-1.03,2.3-2.3v-27.28c-11.14-1.35-21.13-6.33-29.75-14.87-.08-.08-.15-.15-.22-.23v42.37c0,1.27,1.03,2.3,2.3,2.3Z"/><path class="cls-1" d="M252.46,230.96s23.58-.07,24.59-.16c3.36-.31,6.58-1.12,9.58-2.36,11.97-4.96,20.4-16.76,20.4-30.53v-12.52c-8.33,8.84-19.84,14.38-32.55,14.52-2.47,3.52-6.52,5.83-11.15,5.84h-21.21c3.56,4.49,6.36,9.6,8.18,15.16,1.05,3.21,1.8,6.57,2.16,10.04Z"/><path class="cls-1" d="M129.33,112.26c6.32-4.12,13.83-6.7,21.97-7.62v-8.04c0-1.23,1-2.22,2.23-2.22h43.43c.53,0,1.01,.22,1.39,.53v30.55c-.02,2.75-.05,3.81-.05,4.12-.79,.78-2.17,2.12-3.58,3.43-2.11,1.97-2.39,5.2-.63,7.5l.18,.24c.04,.05,.09,.11,.14,.15,3.81,4.75,8.58,9.6,13.45,13.67,.15,.13,.34,.19,.53,.19,.18,0,.37-.06,.52-.18,9.07-7.38,16.12-14.14,21-23.19,.06-.12,.1-.26,.1-.39l-.02-36.08c.38-.32,.85-.53,1.39-.53h43.44c1.23,0,2.22,.99,2.22,2.22v6.42c3.78,.44,7.5,1.32,11.08,2.66,3.61,1.28,6.99,2.93,10.04,4.93,1.13,.74,2.38,1.71,3.7,2.88,1.85,1.48,3.56,3.07,5.16,4.75v-32.55c0-9.11-7.39-16.5-16.49-16.5h-50.97c.14-.19,.28-.39,.42-.58,.48-.64,.97-1.27,1.45-1.85l.33-.43c.53-.92,.22-2.1-.69-2.64l-13.68-8.01,47.08-30.51c.62-.07,1.14-.42,1.44-.94,.17-.29,.29-.6,.29-.95l-.07-.53c-.13-.78-.24-1.6-.33-2.44-.27-2.39-.42-4.98-.42-7.69,0-1.99,.1-3.88,.25-5.71,.06-.7,.1-1.42,.18-2.08,.1-.8,.2-1.59,.32-2.33l.07-.55c0-1.07-.87-1.93-1.93-1.93h-120.22c-1.07,0-1.93,.86-1.93,1.93l.07,.55c.11,.75,.22,1.53,.32,2.33,.28,2.41,.43,5.03,.43,7.79s-.15,5.31-.42,7.69c-.1,.84-.2,1.66-.33,2.44l-.07,.53c0,1.07,.87,1.93,1.93,1.93h74.03l-25.03,16.23-16.36-9.59c-.93-.54-2.11-.23-2.64,.69l-.22,.5c-.27,.71-.58,1.44-.91,2.17-.98,2.22-2.16,4.56-3.56,6.94-1.38,2.35-2.81,4.5-4.26,6.43-.5,.67-1.01,1.33-1.52,1.94l-.33,.43c-.54,.92-.23,2.1,.69,2.64l26.67,15.62h-61.74v.06c-.35-.02-.72-.06-1.08-.06-9.11,0-16.49,7.39-16.49,16.5v33.82c2.84-3.25,5.67-5.72,8.01-7.25Z"/><path class="cls-1" d="M204.16,157.55l-.4-.32c-5.05-4.19-9.52-8.78-13.28-13.64-.21-.28-.58-.39-.89-.3-7.32,.57-13.04,7.67-13.04,16.22,0,4.03,1.29,7.91,3.62,10.91,.04,.05,.07,.1,.12,.14,1.09,1.06,4.44,4.07,4.85,4.41,3.52,2.97,7.43,5.81,11.62,8.42,.14,.08,.29,.13,.44,.13,.27,0,.53-.13,.69-.38,3.75-5.8,8.66-11.14,15.92-17.34,.2-.17,.31-.43,.29-.69-.02-.26-.16-.5-.38-.64-1.89-1.2-3.4-2.22-4.77-3.21-1.53-1.1-3.1-2.31-4.79-3.71Z"/><path class="cls-1" d="M230.45,139.74s-.15-.1-.16-.11c-.37-.24-.88-.14-1.13,.23-4.27,6.25-9.61,12.06-15.87,17.28-.19,.16-.3,.4-.3,.65,0,.25,.12,.49,.33,.64,.47,.36,.94,.71,1.42,1.05l.47,.35c3.7,2.71,7.48,5.11,11.23,7.15,.29,.16,.58,.31,.87,.46l.81,.41c1.5,.78,2.87,1.45,4.28,2.09,.08,.03,.15,.05,.23,.06,.9,.26,1.9,.44,3.03,.55h.22c1.22,0,2.42-.03,3.62-.07,.03,0,.06,0,.08,0l.53-.08c.45-.07,.9-.16,1.34-.26l.18-.04c.14-.03,.28-.06,.42-.1,.64-.17,1.28-.37,1.94-.63,2.88-1.13,5.05-3.05,6.46-5.71,.42-.79,.77-1.65,1.03-2.56,.25-.87,.44-1.78,.54-2.71,.29-2.62,.02-5.41-.8-8.09-.03-.33-.29-.63-.61-.72-2.17-.64-3.96-1.26-5.61-1.93-1.05-.43-2.1-.91-3.23-1.48-1.68-.83-3.52-1.84-5.57-2.98l-.45-.26c-1.86-1.04-3.53-2.04-5.1-3.05l-.49,.66h0s.29-.8,.29-.8Z"/><path class="cls-1" d="M201.66,241.13l.67-.09c.88-.14,1.8-.26,2.74-.37,5.85-.67,12.34-.69,18.24-.01,.98,.11,1.95,.24,2.89,.39l.75,.09c1.72,0,3.12-1.4,3.12-3.13v-.27c.01-.08,.03-.17,.03-.22v-43.05c.01-1.95,.03-3.04,.05-3.65,5.23-5.06,9.87-10.57,13.78-16.4,.19-.29,.14-.65-.06-.93-.2-.28-.6-.39-.94-.3-.19,.05-.38,.09-.71,.17-.56,.13-1.08,.24-1.59,.31-.26,.04-.52,.08-.78,.11-.51,.06-1.04,.1-1.73,.14-.18,.01-.36,.02-.53,.02h-.31c-.69,0-1.31-.03-1.93-.08-1.18-.11-2.32-.32-3.45-.62-.3-.06-.6-.16-1-.35-1.34-.61-2.75-1.3-4.32-2.11l-.75-.38c-.32-.16-.63-.32-.95-.5-1.9-1.03-3.84-2.18-5.78-3.41-.31-.19-.7-.17-.97,.06-7.22,5.97-14.58,12.76-19.58,22-.07,.12-.1,.25-.1,.39v49.07c0,1.72,1.32,3.15,3.23,3.12Z"/></g></g></g></svg>