<?xml version="1.0" encoding="UTF-8"?><svg id="_레이어_2" xmlns="http://www.w3.org/2000/svg" viewBox="0 0 160 77"><defs><style>.cls-1{fill:#221e1f;}.cls-2{fill:#b72025;}</style></defs><path class="cls-2" d="m32.65,27.36c-1.31,1.95-2.87,3.7-4.68,5.27-.65.57-1.33,1.11-2.02,1.61h13.39c-.69-.5-1.37-1.04-2.02-1.61-1.8-1.57-3.36-3.32-4.67-5.27Zm-4.13-21.3h-9.71v6.32h-9.46v-6.32H0v28.18h20.36l-2.98-3.97c3.48-1.95,6.21-4.29,8.18-7.02,1.97-2.74,2.96-5.95,2.96-9.62v-7.58Zm-9.71,19.71h-9.46v-5.89h9.46v5.89Zm141.2-11.38V6.04h-60.43l-13.22.02V0h-9.8v6.06h-12.41s0,0,0,0h-27.36v7.58c0,3.67.99,6.88,2.96,9.62,1.97,2.73,4.7,5.07,8.18,7.02l-2.98,3.97h19.2V14.32h8.83c-2.52,2.31-4.11,5.62-4.11,9.31,0,6.96,5.64,12.6,12.6,12.6s12.6-5.65,12.6-12.6c0-3.69-1.59-7.01-4.11-9.31h18.32c-.24,3.36-1.58,6.1-4.02,8.96-2.44,2.85-5.68,5.21-9.7,7.07l5.44,5.57c2.52-1,4.87-2.28,7.04-3.85,2.17-1.57,4.04-3.32,5.62-5.25l12.89,9.43,5.55-6.54-14.31-10.06c.23-.86.43-1.79.59-2.79.16-1,.28-1.6.36-2.53h15.56v19.86h26.72v-8.87h-17.26v-10.92h17.26Zm-104.85,11.38h-8.99v-11.57h8.99v11.57Zm26.3,2.36c-2.48,0-4.49-2.01-4.49-4.49s2.01-4.49,4.49-4.49,4.49,2.01,4.49,4.49-2.01,4.49-4.49,4.49Z"/><g><g><path class="cls-1" d="m17.51,76.9c-.21,0-.41-.08-.57-.23-.16-.16-.24-.36-.24-.57v-4.35c0-.2.08-.41.24-.57.15-.15.36-.23.57-.23h1.41c.95,0,1.73.27,1.73,1.54,0,.69-.34,1.18-1.01,1.31h0c.88.14,1.11.71,1.11,1.52,0,1.51-1.31,1.57-1.84,1.57h-1.4Zm.44-3.52h.83c.28,0,.65-.18.65-.76,0-.44-.3-.76-.72-.76h-.77v1.52Zm0,2.61h.69c.26,0,.86-.01.86-.85,0-.53-.2-.85-.82-.85h-.73v1.69Z"/><path class="cls-1" d="m26.49,70.95v4.22c0,.89-.5,1.83-2.01,1.83-1.37,0-2.03-.71-2.03-1.83v-3.42c0-.2.08-.41.23-.57.16-.15.37-.23.57-.23h.44v4.13c0,.74.32,1.02.77,1.02.55,0,.79-.36.79-1.02v-3.34c0-.2.08-.41.23-.57.16-.15.36-.23.57-.23h.44Z"/><path class="cls-1" d="m29.87,77c-1.54,0-1.83-.91-1.77-1.94h1.25c0,.57.02,1.05.71,1.05.42,0,.63-.27.63-.67,0-1.07-2.51-1.14-2.51-2.91,0-.93.44-1.68,1.96-1.68,1.21,0,1.81.55,1.73,1.79h-1.21c0-.45-.08-.9-.58-.9-.4,0-.64.22-.64.63,0,1.13,2.51,1.03,2.51,2.9,0,1.54-1.13,1.72-2.08,1.72Z"/><path class="cls-1" d="m33.12,76.9l1.48-5.37c.05-.16.15-.31.29-.42.15-.11.31-.16.48-.16h1.03l1.61,5.95h-.68c-.17,0-.35-.05-.49-.17-.15-.11-.25-.27-.29-.44l-.18-.71h-1.7l-.34,1.32h-1.23Zm2.4-4.8h-.02l-.57,2.57h1.18l-.6-2.57Z"/><path class="cls-1" d="m39.36,76.9v-5.15c0-.2.08-.41.24-.57.16-.15.36-.23.57-.23h.88l1.58,4.12h.01v-4.12h1.16v5.95h-1.64l-1.63-4.35h-.02v4.35h-1.16Z"/><path class="cls-1" d="m48.1,73.93c0-1.58,0-3.08,2.06-3.08,1.27,0,1.78.7,1.73,1.98h-1.22c0-.79-.14-1.09-.51-1.09-.7,0-.79.66-.79,2.19s.09,2.18.79,2.18c.58,0,.55-.74.57-1.21h1.23c0,1.59-.64,2.1-1.8,2.1-2.06,0-2.06-1.52-2.06-3.07Z"/><path class="cls-1" d="m57.51,70.95v4.22c0,.89-.51,1.83-2.02,1.83-1.37,0-2.03-.71-2.03-1.83v-3.42c0-.2.08-.41.24-.57.16-.15.36-.23.57-.23h.45v4.13c0,.74.31,1.02.76,1.02.55,0,.79-.36.79-1.02v-3.34c0-.2.08-.41.24-.57.16-.15.36-.23.57-.23h.44Z"/><path class="cls-1" d="m60.08,76.9c-.21,0-.41-.08-.57-.23-.16-.16-.24-.36-.24-.57v-4.35c0-.2.08-.41.24-.57.15-.15.36-.23.57-.23h.44v4.96h1.86v.99h-2.3Z"/><path class="cls-1" d="m66.73,70.95v.99h-1.39v4.96h-.44c-.21,0-.41-.08-.57-.23-.16-.16-.24-.36-.24-.57v-4.16h-1.38v-.19c0-.2.08-.41.23-.57.16-.15.36-.23.57-.23h3.21Z"/><path class="cls-1" d="m72.08,70.95v4.22c0,.89-.51,1.83-2.02,1.83-1.37,0-2.03-.71-2.03-1.83v-3.42c0-.2.08-.41.23-.57.16-.15.36-.23.57-.23h.44v4.13c0,.74.31,1.02.77,1.02.54,0,.79-.36.79-1.02v-3.34c0-.2.08-.41.23-.57.16-.15.36-.23.57-.23h.44Z"/><path class="cls-1" d="m75.05,76.9h-.44c-.21,0-.41-.08-.57-.23-.16-.16-.23-.36-.23-.57v-4.35c0-.2.08-.41.23-.57.16-.15.36-.23.57-.23h1.5c.85,0,1.39.54,1.39,1.56,0,.76-.29,1.32-1.1,1.45v.02c.28.04,1.09.1,1.09,1.17,0,.38.02,1.5.14,1.75h-1.22c-.16-.36-.13-.77-.13-1.15,0-.71.07-1.32-.89-1.32h-.32v2.46Zm0-3.38h.55c.49,0,.63-.5.63-.88,0-.57-.24-.78-.63-.78h-.55v1.66Z"/><path class="cls-1" d="m78.7,76.9l1.49-5.37c.04-.16.14-.31.28-.42.15-.11.32-.16.49-.16h1.03l1.62,5.95h-.69c-.17,0-.35-.05-.49-.17-.15-.11-.24-.27-.29-.44l-.18-.71h-1.69l-.34,1.32h-1.23Zm2.4-4.8h-.02l-.57,2.57h1.19l-.6-2.57Z"/><path class="cls-1" d="m85.74,76.9c-.2,0-.41-.08-.57-.23-.16-.16-.24-.36-.24-.57v-4.35c0-.2.08-.41.24-.57.16-.15.36-.23.57-.23h.44v4.96h1.86v.99h-2.31Z"/><path class="cls-1" d="m92.68,76.9c-.21,0-.41-.08-.57-.23s-.24-.36-.24-.57v-4.35c0-.2.08-.41.24-.57.16-.15.36-.23.57-.23h2.29v.91h-1.85v1.52h1.77v.92h-1.77v2.6h-.44Z"/><path class="cls-1" d="m96.25,73.93c0-1.58,0-3.08,2.05-3.08s2.05,1.5,2.05,3.08,0,3.07-2.05,3.07-2.05-1.52-2.05-3.07Zm2.84,0c0-1.53-.09-2.19-.79-2.19s-.79.66-.79,2.19.09,2.18.79,2.18.79-.66.79-2.18Z"/><path class="cls-1" d="m106.11,70.95v4.22c0,.89-.51,1.83-2.02,1.83-1.37,0-2.02-.71-2.02-1.83v-3.42c0-.2.07-.41.23-.57.16-.15.36-.23.57-.23h.44v4.13c0,.74.32,1.02.76,1.02.55,0,.8-.36.8-1.02v-3.34c0-.2.08-.41.23-.57.16-.15.36-.23.57-.23h.44Z"/><path class="cls-1" d="m107.87,76.9v-5.15c0-.2.07-.41.23-.57.16-.15.36-.23.57-.23h.88l1.59,4.12h.01v-4.12h1.16v5.95h-1.64l-1.62-4.35h-.02v4.35h-1.16Z"/><path class="cls-1" d="m114.13,71.75c0-.2.07-.41.23-.57.16-.15.36-.23.57-.23h1.27c1.63,0,1.94,1.08,1.94,2.94,0,.91.14,3.01-1.99,3.01h-1.22c-.21,0-.41-.08-.57-.23s-.23-.36-.23-.57v-4.35Zm1.24,4.24h.6c.76,0,.9-.57.9-2.06,0-1.1,0-2.06-.86-2.06h-.64v4.13Z"/><path class="cls-1" d="m119.43,76.9l1.48-5.37c.04-.16.14-.31.29-.42.15-.11.32-.16.49-.16h1.03l1.61,5.95h-.68c-.18,0-.35-.05-.5-.17-.15-.11-.24-.27-.29-.44l-.18-.71h-1.69l-.34,1.32h-1.23Zm2.4-4.8h-.02l-.57,2.57h1.19l-.6-2.57Z"/><path class="cls-1" d="m128.71,70.95v.99h-1.39v4.96h-.44c-.21,0-.41-.08-.57-.23s-.23-.36-.23-.57v-4.16h-1.39v-.19c0-.2.08-.41.23-.57.16-.15.36-.23.57-.23h3.21Z"/><path class="cls-1" d="m130.83,76.9c-.21,0-.41-.08-.57-.23s-.23-.36-.23-.57v-4.35c0-.2.08-.41.23-.57.16-.15.36-.23.57-.23h.44v5.95h-.44Z"/><path class="cls-1" d="m133,73.93c0-1.58,0-3.08,2.05-3.08s2.05,1.5,2.05,3.08,0,3.07-2.05,3.07-2.05-1.52-2.05-3.07Zm2.85,0c0-1.53-.09-2.19-.79-2.19s-.79.66-.79,2.19.09,2.18.79,2.18.79-.66.79-2.18Z"/><path class="cls-1" d="m138.85,76.9v-5.15c0-.2.08-.41.23-.57.16-.15.36-.23.57-.23h.88l1.58,4.12h.02v-4.12h1.16v5.95h-1.64l-1.63-4.35h-.01v4.35h-1.16Z"/></g><g><path d="m17.42,47.09c.48.18.81.36.97.55.16.19.25.63.25,1.33v4.36c0,.52.17.97.5,1.34.34.37.78.55,1.34.55h7.94c.42,0,.84-.16,1.16-.48.32-.32.48-.75.48-1.17v-6.28c0-.38-.13-.75-.38-1.06-.25-.31-.6-.5-.96-.57l-1.74-.32c-.5-.07-.8.06-.89.4-.09.35.03.58.37.69.48.17.81.34.97.51.17.17.25.57.25,1.19v1.3h-6.65v-1.45c0-.37-.13-.75-.38-1.06-.25-.3-.59-.5-.95-.57l-1.73-.34c-.52-.07-.81.06-.9.41-.09.35.03.57.36.68Zm3.6,4.27c0-.14.05-.28.16-.39.11-.11.25-.16.39-.16h6.1v2.45c0,.14-.05.28-.16.39-.11.11-.25.16-.39.16h-5.7c-.17,0-.28-.03-.33-.07-.04-.05-.07-.18-.07-.38v-2.01Z"/><path d="m42.11,53.12l4.58,4.54c.17.18.49.26.96.26s.7-.2.7-.6c0-.42-.09-.85-.28-1.28-.18-.43-.49-.82-.91-1.15l-4.15-3.08c.41-.68.79-1.42,1.13-2.24.19-.47.36-.96.49-1.46.1-.37.18-.61-.08-.98-.26-.36-.7-.45-.7-.45l-2.35-.67c-.28-.07-.54-.07-.79,0-.25.08-.41.19-.47.33-.03.1-.02.21.03.36.04.14.15.25.3.33.36.21.71.47,1.06.79.35.32.43.73.22,1.22-.58,1.44-1.37,2.79-2.37,4.06-1,1.27-2.2,2.56-3.61,3.87-.11.11-.17.24-.17.39-.01.15.02.27.08.37.16.16.38.24.68.25.3.01.53-.04.7-.15.97-.65,1.9-1.4,2.8-2.25.9-.85,1.63-1.67,2.17-2.46Z"/><path d="m85,47.51l4.39.38c.17,0,.38-.05.63-.14.25-.1.38-.26.38-.5,0-.22-.07-.42-.21-.58-.14-.17-.34-.25-.61-.27l-5.02-.44c-.23,0-.42.05-.57.16-.15.11-.22.23-.22.36,0,.2.12.42.36.65.24.23.53.36.87.39Z"/><path d="m117.36,44.86c-.09.35.03.57.37.68.5.19.9.38,1.2.57.31.19.46.62.46,1.3v5.77h-1.58v-6.04c0-.38-.12-.76-.39-1.07-.26-.31-.61-.5-.99-.56l-2.15-.34c-.5-.08-.79.05-.88.4-.09.34.03.57.37.68.5.17.9.36,1.2.56.31.2.46.64.46,1.34v16.7c0,.19.07.36.22.52.15.16.35.23.6.23.54,0,.94-.16,1.19-.47.25-.32.37-.71.37-1.19v-9.36h1.58v10.97c0,.17.08.34.23.5.15.16.35.23.59.23.55,0,.94-.15,1.19-.46.24-.31.37-.71.37-1.2v-18.18c0-.38-.13-.76-.38-1.07-.26-.31-.61-.5-.98-.57l-2.16-.36c-.5-.08-.79.06-.89.41Z"/><path d="m53.77,64.42h-2s0,0,0,0h-6.96c-.19,0-.3-.03-.35-.08-.05-.05-.07-.2-.07-.44v-2.8c0-.37-.13-.75-.38-1.06-.26-.31-.6-.5-.96-.57l-1.72-.32c-.5-.08-.79.05-.88.4-.09.35.02.57.35.68.48.16.81.33.97.52.16.19.24.63.24,1.33v1.83c0,.5.17.94.52,1.32.34.37.79.55,1.33.55h9.92c.37,0,.68-.3.68-.68s-.31-.69-.68-.69Z"/><path d="m34.02,58.29c0-.39-.31-.7-.69-.7H14.25c-.06,0-.17.04-.3.13-.14.09-.21.18-.21.27,0,.24.13.46.37.67.25.21.49.32.72.32h8.22v6.79c0,.18.07.34.22.5.15.16.34.24.57.24.55,0,.95-.16,1.2-.47.25-.32.39-.71.39-1.18v-5.86h7.9c.38,0,.69-.31.69-.69Z"/><path d="m78.24,55.51h-19.28c-.07,0-.17.04-.31.13-.14.08-.21.17-.21.25,0,.25.12.48.37.69.25.22.49.33.72.33h8.48v4.64c0,.16.07.32.22.47.15.16.35.24.6.24.55,0,.94-.16,1.19-.47.25-.32.37-.71.37-1.18v-3.69h7.85c.38,0,.69-.32.69-.7s-.31-.7-.69-.7Z"/><path d="m92.37,48.77h-10.47c-.06,0-.16.04-.29.13-.13.09-.2.17-.2.25,0,.26.13.48.38.69.25.21.51.31.77.31h9.82c.37,0,.67-.3.67-.68s-.3-.69-.67-.69Z"/><path d="m114.14,58.15c-.17-.4-.43-.8-.8-1.19l-3.85-3.91c.3-.63.55-1.28.77-1.95.22-.67.38-1.29.49-1.86h2.67c.38,0,.69-.31.69-.69s-.31-.7-.69-.7h-8.66c-.06,0-.16.04-.3.13-.14.08-.21.18-.21.27,0,.25.12.48.37.69.25.21.49.31.72.31h2.88c-.28,1.48-.88,3.18-1.79,5.08-.91,1.9-1.99,3.51-3.23,4.82-.11.09-.17.21-.18.36,0,.14.02.26.08.35.17.16.4.24.68.25.28.01.52-.04.7-.15.81-.58,1.6-1.38,2.37-2.38.77-1,1.38-1.97,1.83-2.9l3.94,5.02c.17.19.49.29.96.31.47.02.72-.21.75-.68.03-.37-.04-.75-.21-1.15Z"/><polygon points="135.95 47.52 135.89 47.52 135.95 47.54 135.95 47.52"/><path d="m142.58,64.42h-9.16c-.19,0-.3-.03-.35-.08-.04-.05-.07-.2-.07-.44v-2.8c0-.37-.13-.75-.38-1.06-.25-.31-.6-.5-.96-.57l-1.71-.32c-.5-.08-.8.05-.89.4-.1.35.02.57.35.68.48.16.8.33.97.52.16.19.24.63.24,1.33v1.83c0,.5.17.94.51,1.32.35.37.79.55,1.34.55h10.11c.37,0,.68-.3.68-.68s-.31-.69-.68-.69Z"/><path d="m75.35,64.42h-9.19c-.17,0-.28-.03-.32-.08-.05-.05-.07-.2-.07-.44v-2.8c0-.38-.12-.75-.38-1.06-.25-.31-.6-.5-.96-.57l-1.74-.32c-.5-.08-.79.05-.88.4-.1.35.03.57.37.68.48.16.8.33.97.52.16.19.24.63.24,1.33v1.83c0,.5.17.94.5,1.32.33.37.77.55,1.32.55h10.14c.37,0,.68-.3.68-.68s-.31-.69-.68-.69Z"/><path d="m53.18,51.56v-5.1c0-.38-.13-.76-.39-1.07-.26-.31-.61-.5-.98-.57l-2.16-.36c-.5-.08-.8.06-.89.41-.09.35.02.57.35.68.51.19.92.39,1.23.58.3.2.45.64.45,1.34v13.14c0,.19.07.37.22.52.15.16.34.24.57.24.55,0,.95-.16,1.2-.48.26-.31.39-.71.39-1.18v-6.75h3.76c.38,0,.69-.31.69-.7s-.31-.69-.69-.69h-3.76Z"/><path d="m101.26,53.19h-3.76v-6.74c0-.38-.13-.76-.39-1.07-.26-.31-.61-.5-.98-.57l-2.16-.36c-.5-.08-.79.06-.89.41-.09.35.02.57.35.68.51.19.92.38,1.22.57.3.19.45.63.45,1.33v11.67c-.95.3-1.68.55-2.96.75-1.28.2-2.5.31-3.66.32v-2.43c.59-.14,1.17-.38,1.76-.73,1.01-.6,1.52-1.54,1.52-2.81,0-1.14-.46-2.02-1.4-2.66-.94-.64-1.99-.96-3.16-.96-1.39,0-2.48.37-3.3,1.1-.81.72-1.22,1.57-1.22,2.52,0,1.11.46,2,1.37,2.68.62.46,1.3.76,2.05.91v2.37h-4.93c-.06,0-.16.05-.29.13-.13.09-.2.17-.2.25,0,.25.12.48.37.69.25.2.5.3.75.3h5.75c1.52,0,3.02-.11,4.5-.32,1.48-.21,2.23-.44,3.04-.69v5.06c0,.16.07.32.22.47.15.16.34.23.57.23.55,0,.95-.15,1.2-.46.26-.31.39-.71.39-1.2v-10.05h3.76c.38,0,.69-.31.69-.7s-.31-.7-.69-.7Zm-16.39,1.02c0-.66.2-1.21.61-1.63.4-.43.99-.64,1.77-.64.7,0,1.28.19,1.72.57.45.38.67.95.67,1.7,0,.91-.26,1.53-.78,1.86-.53.34-1.05.5-1.59.5-.65,0-1.21-.2-1.68-.59-.47-.39-.71-.98-.71-1.78Z"/><path d="m145.58,51.56h-3.76v-5.1c0-.38-.13-.76-.39-1.07-.26-.31-.61-.5-.98-.57l-2.16-.36c-.5-.08-.79.06-.88.41-.09.35.02.57.35.68.51.19.92.39,1.23.58.3.2.45.64.45,1.34v13.14c0,.19.07.37.22.52.15.16.34.24.57.24.55,0,.95-.16,1.21-.48.25-.31.38-.71.38-1.18v-6.75h3.76c.38,0,.69-.31.69-.7s-.31-.69-.69-.69Z"/><path d="m74.21,46.42c-.32-.32-.74-.48-1.16-.48h-8.46c-.29,0-1.5-.31-1.5-.31-.5-.08-.79.06-.89.4-.09.35.18.66.37.76.2.12.29.18.45.34.17.17.25.57.25,1.2v.85h0v2.31c0,.51.17.95.5,1.32.33.37.78.56,1.34.56h7.94c.42,0,.84-.16,1.16-.49.32-.32.48-.75.48-1.17v-4.12c0-.42-.16-.85-.48-1.17Zm-1.9,5c0,.14-.05.28-.16.39-.11.11-.24.16-.39.16h-5.71c-.17,0-.28-.03-.33-.08-.05-.06-.07-.19-.07-.39v-3.61c0-.14.05-.29.16-.39.11-.11.25-.16.39-.16h6.11v4.09Z"/><path d="m131.71,55.75h-2.06c-.15,0-.25-.03-.3-.08-.05-.05-.07-.19-.07-.42v-5.77c0-.14.06-.29.16-.39.11-.11.24-.16.38-.16h6.11c.38,0,.68-.31.68-.69s-.31-.69-.68-.69l-.05-.02h-7.67c-.29,0-1.5-.3-1.5-.3-.5-.08-.79.06-.88.4-.09.35.18.65.37.76.21.11.29.17.45.34.15.15.22.47.24.97v5.56c0,.51.17.95.5,1.32.33.37.77.55,1.32.55h2.73c3.26,0,6.83-.94,7.98-1.28v-1.48c-1.29.41-4.76,1.39-7.72,1.39Z"/></g></g></svg>