<?xml version="1.0" encoding="UTF-8"?><svg id="_레이어_2" xmlns="http://www.w3.org/2000/svg" viewBox="0 0 170.08 143.58"><defs><style>.cls-1{fill:#fff;}</style></defs><g id="Layer_1"><g><g><path class="cls-1" d="M88.67,86.74c-.13-.13-.24-.26-.34-.41-1.03-1.38-1.71-3.04-1.99-4.8-.49,.13-1.11,.26-1.86,.34-.47,.05-1,.08-1.58,.08-1,0-1.94-.19-2.8-.52-.69-.23-1.35-.58-1.94-1.13-1.37-1.12-2.24-2.72-2.24-4.5,0-.64,.11-1.26,.32-1.85,.07-.22,.15-.43,.25-.64,.51-1.09,1.42-2,2.56-2.63,1.1-.65,2.43-1.02,3.85-1.02,1.17,0,2.26,.25,3.23,.7,1.3,.5,2.37,1.21,3.11,1.79,1.28-1.29,2.89-2.17,4.68-2.47-.01,0-.01-.02-.02-.03-.03-.03-.07-.07-.1-.11-.06-.06-.12-.12-.19-.2-.05-.05-.11-.11-.16-.16-.08-.07-.15-.15-.24-.23-.07-.06-.15-.13-.22-.19-.09-.09-.19-.17-.29-.26-.08-.07-.18-.15-.26-.23-.11-.09-.22-.19-.34-.29-.1-.08-.21-.16-.31-.24-.13-.1-.26-.2-.39-.3-.11-.08-.24-.17-.36-.25-.14-.1-.29-.2-.44-.3-.13-.09-.27-.17-.41-.26-.16-.1-.32-.2-.48-.3-.15-.09-.3-.17-.45-.25-.17-.1-.34-.19-.53-.28-.16-.08-.33-.16-.5-.24-.19-.09-.38-.18-.57-.26-.17-.07-.36-.14-.54-.21-.2-.08-.4-.16-.61-.23-.19-.06-.38-.12-.58-.18-.21-.07-.43-.13-.65-.19-.2-.05-.41-.09-.61-.14-.23-.05-.45-.1-.69-.14-.21-.04-.43-.06-.65-.09-.24-.03-.48-.06-.72-.08-.22-.02-.45-.02-.68-.03-.34-.01-.67-.03-1.02-.01,0,0-.07,0-.16,0-.04,0-.09,0-.15,0-.01,0-.03,0-.05,0-.08,0-.17,0-.28,0-.04,0-.09,0-.13,0-.09,0-.19,.01-.29,.02-.06,0-.12,.01-.19,.02-.1,0-.22,.02-.33,.04-.07,0-.15,.02-.23,.03-.12,.02-.24,.04-.37,.06-.09,.02-.17,.03-.26,.05-.14,.03-.28,.06-.42,.09-.09,.02-.18,.04-.27,.06-.16,.04-.33,.09-.51,.14-.08,.02-.15,.04-.23,.07-.25,.08-.51,.17-.78,.27-.02,0-.05,.02-.07,.03-.24,.09-.48,.2-.72,.31-.09,.04-.18,.09-.27,.13-.18,.09-.36,.18-.55,.29-.1,.06-.21,.12-.31,.19-.17,.1-.34,.21-.51,.33-.11,.07-.22,.15-.33,.23-.16,.12-.33,.25-.49,.38-.11,.09-.22,.18-.32,.28-.16,.15-.32,.3-.48,.46-.1,.1-.2,.2-.3,.31-.17,.18-.34,.38-.5,.59-.08,.1-.17,.19-.24,.3-.24,.32-.48,.65-.7,1.01-.59,.96-1.16,2.53-1.44,4.37-.08,.53-.13,1.07-.16,1.63-.06,1.4,.07,2.88,.49,4.31,.17,.57,.38,1.14,.65,1.69,.15,.31,.31,.61,.49,.9,.06,.1,.13,.19,.19,.29,.12,.18,.24,.37,.36,.55,.08,.11,.17,.22,.26,.33,.12,.15,.23,.3,.35,.45,.09,.11,.2,.21,.29,.32,.12,.14,.24,.27,.37,.4,.11,.11,.23,.21,.34,.32,.12,.12,.24,.24,.37,.35,.12,.1,.24,.2,.36,.29,.13,.1,.25,.22,.39,.31,.12,.09,.25,.18,.38,.27,.13,.1,.26,.19,.4,.28,.13,.09,.26,.16,.39,.24,.13,.08,.26,.17,.4,.24,.14,.08,.27,.14,.41,.22,.14,.07,.27,.15,.41,.21,.14,.07,.27,.12,.41,.19,.14,.06,.28,.13,.41,.19,.13,.06,.27,.1,.4,.15,.14,.05,.28,.11,.41,.16,.14,.05,.27,.09,.4,.13,.14,.04,.27,.09,.41,.13,.13,.04,.26,.07,.39,.1,.13,.03,.27,.07,.4,.1,.13,.03,.26,.05,.39,.07,.13,.02,.26,.05,.39,.07,.12,.02,.24,.03,.37,.04,.13,.01,.25,.03,.38,.04,.12,0,.23,0,.34,.01,.13,0,.26,.01,.39,.01,1.46,0,2.74-.24,3.64-.47,1.64-.41,2.9-1.05,3.72-1.54-.09-.08-.18-.17-.24-.23-.02-.02-.04-.04-.06-.06Z"/><path class="cls-1" d="M79.04,53.77c-1.15,0-2.28,.08-3.38,.21-3.74,.45-7.18,1.64-10.08,3.53-1.41,.92-3.21,2.61-4.91,4.84-2.48,3.27-4.75,7.74-5.26,12.85-.57,5.7,1.2,10.92,5.26,15.51,.41,.46,.82,.91,1.27,1.36,3.99,3.95,8.59,6.27,13.71,6.94,1.03,.14,2.08,.21,3.15,.21,9.76,0,14.61-3.07,17.71-5.28,.26-.18,.4-.45,.42-.72-2.02-1.28-3.93-2.67-5.69-4.15-.05-.04-.16-.14-.29-.26-.18,.08-.36,.15-.54,.23-.03,.02-.05,.04-.08,.06-.94,.57-2.48,1.36-4.46,1.86-.55,.14-1.29,.29-2.15,.4-.7,.14-1.38,.22-2.02,.22-8.4,0-15.33-4.22-16.81-12-1-5.35,.6-10.23,3.17-13.32,2.59-3.12,7.07-4.9,12.3-4.9,1.23,0,2.43,.1,3.55,.3,.06,.01,.13,.03,.2,.05,4.68,.72,8.21,3.16,10.18,4.87,.15,.1,.3,.2,.44,.3,.26-.7,.66-1.36,1.24-1.9,.4-.38,.8-.76,1.14-1.09,0-.28,0-.66,.01-1.17v-3.25c-4.96-3.55-11.39-5.71-18.08-5.71Z"/><path class="cls-1" d="M153.52,61.62c-1.08-1.33-2.31-2.55-3.64-3.61-.6-.53-1.17-.98-1.69-1.32-1.43-.94-3-1.7-4.67-2.29-1.6-.6-3.28-1.02-4.99-1.23-.58-.07-1.16-.12-1.74-.14-.68-.05-1.37-.08-2.07-.08-6.05,0-12.7,2.31-17.65,5.4v7.15c0,.41-.1,.82-.29,1.18,3.34-2.35,9.06-5.11,13.07-5.83,1.13-.2,2.77-.32,4-.32,5.23,0,9.27,1.81,11.85,4.92,2.57,3.09,4.17,7.97,3.17,13.32-1.48,7.77-8.42,12-16.81,12-3.15,0-5.81-.73-8.67-1.97-1.34,1.96-2.85,3.84-4.5,5.65,3.91,2.08,9.6,3.97,16.06,3.97,.72,0,1.43-.04,2.13-.1,.34,0,.68-.01,1.01-.03,6.18-.33,11.68-3.4,15.42-8.08,3.15-3.94,5.05-9.02,5.05-14.58s-1.93-10.16-5.05-14Z"/><path class="cls-1" d="M132.59,63.18s-.06,0-.1,0c-8.16,.12-13.66,5.6-13.71,5.66l-.43,.51c.18,.1,.35,.2,.54,.31l.14,.08,.07,.04c2.06,1.14,3.28,1.8,4.88,2.39,.98-.94,3.3-2.82,6.58-2.99,0,0,3.1-.34,5.3,1.11,.85,.57,1.54,1.3,1.97,2.14,.64,1.25,.68,2.66,.16,4.14-.23,.78-.63,1.5-1.16,2.13-.02,.03-.04,.06-.07,.08-.03,.04-.07,.08-.1,.11-.56,.64-1.2,1.11-1.88,1.43-.98,.5-2.12,.79-3.35,.79-1.08,0-2.34-.26-3.53-.68-.48,2.29-1.75,4.37-4.06,5.65,.91,.45,2.68,1.22,4.83,1.7,.9,.2,2.16,.4,3.59,.42,.1,0,.2,0,.31,0,3.06,0,5.86-1.05,8.07-2.78,1.42-1.18,2.72-2.82,3.76-5.09,.37-.81,.63-1.65,.82-2.48,.13-.7,.2-1.42,.2-2.16,0-6.91-5.32-12.68-12.84-12.5Z"/></g><g><path class="cls-1" d="M168.78,114.8c-2.37,.3-5.58,.96-9.44,1.79-3.04,.66-6.5,1.42-10.28,2.21-10.71,2.23-24.04,4.64-38.11,5.24-1.49,.02-3,.04-4.55,.04-3.99,0-7.74-.09-11.28-.25-.35-.02-.69-.04-1.04-.06-1.8-.14-3.61-.32-5.41-.55-20.25-2.58-30.95-5.24-35.2-13.73-.62-1.24-1.76-3.57-1.76-6,0-.14-.03-28.05-.03-28.05v-1.15c0-.06-.02-.11-.03-.17-.08-1.18-.39-2.31-.92-3.3-.98-1.86-2.65-3.28-4.67-3.96-.01,0-.03,0-.05-.01,1.81-1.92,3.26-4.18,4.23-6.68,.91-2.33,1.43-4.86,1.43-7.52V13.21c0-.63-.51-1.15-1.15-1.15l-.32,.04c-.46,.07-.95,.14-1.45,.2-1.42,.16-2.96,.25-4.58,.25s-3.2-.09-4.63-.26c-.48-.06-.94-.12-1.39-.19l-.32-.04c-.64,0-1.15,.51-1.15,1.15v12.34L13.83,14.35c-.48-.23-1.06-.02-1.28,.46l-.08,.26c-.11,.37-.23,.74-.35,1.12-.39,1.15-.87,2.37-1.46,3.62-.58,1.23-1.2,2.37-1.83,3.39-.22,.36-.45,.71-.67,1.04l-.15,.22c-.22,.48-.02,1.06,.47,1.29l3.04,1.43,.18,.08,3.41,1.61,15.06,7.29h-11.86c-.31,0-.59,.19-.7,.47-.2,.48-.42,.98-.66,1.47-1.44,2.95-3.43,5.78-5.9,8.41-2.71,2.8-5.81,5.13-9.18,6.93-.48,.24-.93,.45-1.39,.65-.25,.11-.42,.33-.46,.61-.04,.26,.06,.52,.27,.69l9.27,7.78c.14,.12,.33,.19,.51,.19l.27-.02,.16-.11c6.23-4.16,12.27-9.26,16.04-15.14,2.53-3.96,4.54-7.25,6.01-10.78l3.17,1.54,.99,.46v13.32c0,5.29-2,10.11-5.27,13.76H12.85c-.53,0-.97,.43-.97,.96l.04,.27c.04,.23,.06,.47,.1,.72,.08,.71,.19,1.89,.25,3.39,.01,.32,.02,.68,.03,1.03,0,1.33-.08,2.61-.21,3.78-.05,.42-.1,.83-.17,1.22l-.04,.27c0,.2,.07,.37,.18,.52,.17,.26,.45,.44,.79,.44h22.74c.62,0,1.11,.5,1.11,1.11v26.37c0,.53-.35,.99-.87,1.12-5.03,1.3-31.74,8.17-29.17,14.54,2.48,6.15,9.46,17.91,11.25,20.88,.26,.42,.75,.64,1.23,.53,3.18-.73,15.28-4.02,27.87-14.25,.58-.47,.46-1.25-.03-1.81-1.63-1.92-2.34-2.98-3.86-6.44-.3-.67-1.03-1.03-1.67-.67l-13.24,7.48c-.58,.32-1.3,.1-1.6-.48-.28-.56-.07-1.24,.48-1.54l15.54-8.53c1.17,1.81,2.64,3.58,4.37,5.28,.41,.43,.84,.84,1.3,1.21,3.19,2.84,7.12,5.4,11.6,7.41,.07,.03,.15,.07,.22,.1,7.93,3.82,21.58,6.4,41.37,6.77,13.21,.5,31.88,.45,59.59-.4,.47-.01,.9-.32,1.06-.77,.53-1.5,1.43-6.19,2.92-10.35,1.46-4.09,3.51-7.63,4.86-10.07,.46-.83-.21-1.82-1.15-1.7Z"/><path class="cls-1" d="M61.81,115.48l.32-.04c.44-.07,.91-.13,1.39-.19,1.43-.17,3-.26,4.63-.26s3.16,.09,4.58,.25c.5,.06,.99,.12,1.45,.19l.32,.04c.63,0,1.15-.51,1.15-1.15v-13.64c-5.57-.68-10.56-3.16-14.88-7.43-.04-.04-.07-.08-.11-.11v21.19c0,.63,.51,1.15,1.15,1.15Z"/><path class="cls-1" d="M126.23,115.48s11.79-.03,12.3-.08c1.68-.16,3.29-.56,4.79-1.18,5.99-2.48,10.2-8.38,10.2-15.26v-6.26c-4.16,4.42-9.92,7.19-16.28,7.26-1.23,1.76-3.26,2.92-5.58,2.92h-10.6c1.78,2.24,3.18,4.8,4.09,7.58,.53,1.61,.9,3.28,1.08,5.02Z"/><path class="cls-1" d="M64.67,56.13c3.16-2.06,6.91-3.35,10.98-3.81v-4.02c0-.61,.5-1.11,1.11-1.11h21.72c.27,0,.5,.11,.7,.26v15.28c0,1.37-.02,1.91-.03,2.06-.4,.39-1.09,1.06-1.79,1.71-1.06,.99-1.19,2.6-.32,3.75l.09,.12s.05,.05,.07,.07c1.9,2.37,4.29,4.8,6.72,6.83,.07,.06,.17,.1,.26,.1s.19-.03,.26-.09c4.54-3.69,8.06-7.07,10.5-11.59,.03-.06,.05-.13,.05-.2v-18.04c.18-.16,.42-.26,.69-.26h21.72c.61,0,1.11,.5,1.11,1.11v3.21c1.89,.22,3.75,.66,5.54,1.33,1.8,.64,3.49,1.47,5.02,2.47,.57,.37,1.19,.85,1.85,1.44,.93,.74,1.78,1.54,2.58,2.38v-16.27c0-4.56-3.69-8.25-8.25-8.25h-25.48c.07-.1,.14-.2,.21-.29,.24-.32,.48-.64,.73-.93l.17-.22c.27-.46,.11-1.05-.35-1.32l-6.84-4.01,23.54-15.26c.31-.03,.57-.21,.72-.47,.08-.14,.14-.3,.14-.48l-.03-.27c-.07-.39-.12-.8-.17-1.22-.14-1.19-.21-2.49-.21-3.85,0-1,.05-1.94,.13-2.86,.03-.35,.05-.71,.09-1.04,.05-.4,.1-.79,.16-1.17l.04-.27c0-.53-.43-.96-.96-.96h-60.11c-.53,0-.97,.43-.97,.96l.04,.27c.06,.37,.11,.77,.16,1.17,.14,1.21,.22,2.52,.22,3.89s-.07,2.65-.21,3.85c-.05,.42-.1,.83-.17,1.22l-.04,.27c0,.53,.43,.96,.97,.96h37.02l-12.52,8.11-8.18-4.79c-.46-.27-1.06-.12-1.32,.35l-.11,.25c-.13,.35-.29,.72-.45,1.09-.49,1.11-1.08,2.28-1.78,3.47-.69,1.17-1.41,2.25-2.13,3.21-.25,.33-.51,.66-.76,.97l-.17,.21c-.27,.46-.12,1.05,.34,1.32l13.34,7.81h-30.87v.03c-.18-.01-.36-.03-.54-.03-4.55,0-8.25,3.69-8.25,8.25v16.91c1.42-1.62,2.84-2.86,4.01-3.63Z"/><path class="cls-1" d="M102.08,78.78l-.2-.16c-2.52-2.1-4.76-4.39-6.64-6.82-.1-.14-.29-.2-.45-.15-3.66,.29-6.52,3.84-6.52,8.11,0,2.02,.64,3.96,1.81,5.46,.02,.03,.04,.05,.06,.07,.54,.53,2.22,2.04,2.43,2.21,1.76,1.49,3.72,2.9,5.81,4.21,.07,.04,.14,.06,.22,.06,.14,0,.27-.07,.35-.19,1.87-2.9,4.33-5.57,7.96-8.67,.1-.09,.15-.21,.15-.34-.01-.13-.08-.25-.19-.32-.94-.6-1.7-1.11-2.39-1.6-.76-.55-1.55-1.16-2.4-1.86Z"/><path class="cls-1" d="M115.22,69.87s-.07-.05-.08-.05c-.19-.12-.44-.07-.57,.11-2.14,3.12-4.81,6.03-7.94,8.64-.1,.08-.15,.2-.15,.33,0,.13,.06,.24,.16,.32,.23,.18,.47,.35,.71,.53l.24,.17c1.85,1.36,3.74,2.56,5.62,3.58,.14,.08,.29,.15,.43,.23l.41,.2c.75,.39,1.44,.72,2.14,1.04,.04,.02,.07,.03,.11,.03,.45,.13,.95,.22,1.51,.28h.11c.61,0,1.21-.02,1.81-.04,.01,0,.03,0,.04,0l.27-.04c.23-.03,.45-.08,.67-.13l.09-.02c.07-.02,.14-.03,.21-.05,.32-.09,.64-.19,.97-.32,1.44-.56,2.53-1.52,3.23-2.85,.21-.4,.38-.83,.51-1.28,.13-.43,.22-.89,.27-1.36,.15-1.31,.01-2.71-.4-4.05-.02-.17-.14-.31-.31-.36-1.09-.32-1.98-.63-2.8-.97-.52-.22-1.05-.46-1.62-.74-.84-.42-1.76-.92-2.78-1.49l-.23-.13c-.93-.52-1.76-1.02-2.55-1.53l-.25,.33h0s.14-.4,.14-.4Z"/><path class="cls-1" d="M100.83,120.56l.33-.05c.44-.07,.9-.13,1.37-.19,2.93-.34,6.17-.34,9.12,0,.49,.06,.98,.12,1.44,.2l.37,.05c.86,0,1.56-.7,1.56-1.56v-.14s.01-.08,.01-.11v-21.52c0-.98,.02-1.52,.03-1.83,2.62-2.53,4.93-5.29,6.89-8.2,.1-.14,.07-.32-.03-.46-.1-.14-.3-.2-.47-.15-.09,.03-.19,.05-.35,.08-.28,.07-.54,.12-.8,.16-.13,.02-.26,.04-.39,.06-.26,.03-.52,.05-.87,.07-.09,0-.18,0-.27,.01h-.16c-.34,0-.66-.01-.96-.04-.59-.06-1.16-.16-1.72-.31-.15-.03-.3-.08-.5-.17-.67-.3-1.37-.65-2.16-1.06l-.38-.19c-.16-.08-.32-.16-.47-.25-.95-.51-1.92-1.09-2.89-1.7-.15-.1-.35-.08-.49,.03-3.61,2.98-7.29,6.38-9.79,11-.03,.06-.05,.13-.05,.2v24.53c0,.86,.66,1.57,1.62,1.56Z"/></g><g><path class="cls-1" d="M88.67,86.74c-.13-.13-.24-.26-.34-.41-1.03-1.38-1.71-3.04-1.99-4.8-.49,.13-1.11,.26-1.86,.34-.47,.05-1,.08-1.58,.08-1,0-1.94-.19-2.8-.52-.69-.23-1.35-.58-1.94-1.13-1.37-1.12-2.24-2.72-2.24-4.5,0-.64,.11-1.26,.32-1.85,.07-.22,.15-.43,.25-.64,.51-1.09,1.42-2,2.56-2.63,1.1-.65,2.43-1.02,3.85-1.02,1.17,0,2.26,.25,3.23,.7,1.3,.5,2.37,1.21,3.11,1.79,1.28-1.29,2.89-2.17,4.68-2.47-.01,0-.01-.02-.02-.03-.03-.03-.07-.07-.1-.11-.06-.06-.12-.12-.19-.2-.05-.05-.11-.11-.16-.16-.08-.07-.15-.15-.24-.23-.07-.06-.15-.13-.22-.19-.09-.09-.19-.17-.29-.26-.08-.07-.18-.15-.26-.23-.11-.09-.22-.19-.34-.29-.1-.08-.21-.16-.31-.24-.13-.1-.26-.2-.39-.3-.11-.08-.24-.17-.36-.25-.14-.1-.29-.2-.44-.3-.13-.09-.27-.17-.41-.26-.16-.1-.32-.2-.48-.3-.15-.09-.3-.17-.45-.25-.17-.1-.34-.19-.53-.28-.16-.08-.33-.16-.5-.24-.19-.09-.38-.18-.57-.26-.17-.07-.36-.14-.54-.21-.2-.08-.4-.16-.61-.23-.19-.06-.38-.12-.58-.18-.21-.07-.43-.13-.65-.19-.2-.05-.41-.09-.61-.14-.23-.05-.45-.1-.69-.14-.21-.04-.43-.06-.65-.09-.24-.03-.48-.06-.72-.08-.22-.02-.45-.02-.68-.03-.34-.01-.67-.03-1.02-.01,0,0-.07,0-.16,0-.04,0-.09,0-.15,0-.01,0-.03,0-.05,0-.08,0-.17,0-.28,0-.04,0-.09,0-.13,0-.09,0-.19,.01-.29,.02-.06,0-.12,.01-.19,.02-.1,0-.22,.02-.33,.04-.07,0-.15,.02-.23,.03-.12,.02-.24,.04-.37,.06-.09,.02-.17,.03-.26,.05-.14,.03-.28,.06-.42,.09-.09,.02-.18,.04-.27,.06-.16,.04-.33,.09-.51,.14-.08,.02-.15,.04-.23,.07-.25,.08-.51,.17-.78,.27-.02,0-.05,.02-.07,.03-.24,.09-.48,.2-.72,.31-.09,.04-.18,.09-.27,.13-.18,.09-.36,.18-.55,.29-.1,.06-.21,.12-.31,.19-.17,.1-.34,.21-.51,.33-.11,.07-.22,.15-.33,.23-.16,.12-.33,.25-.49,.38-.11,.09-.22,.18-.32,.28-.16,.15-.32,.3-.48,.46-.1,.1-.2,.2-.3,.31-.17,.18-.34,.38-.5,.59-.08,.1-.17,.19-.24,.3-.24,.32-.48,.65-.7,1.01-.59,.96-1.16,2.53-1.44,4.37-.08,.53-.13,1.07-.16,1.63-.06,1.4,.07,2.88,.49,4.31,.17,.57,.38,1.14,.65,1.69,.15,.31,.31,.61,.49,.9,.06,.1,.13,.19,.19,.29,.12,.18,.24,.37,.36,.55,.08,.11,.17,.22,.26,.33,.12,.15,.23,.3,.35,.45,.09,.11,.2,.21,.29,.32,.12,.14,.24,.27,.37,.4,.11,.11,.23,.21,.34,.32,.12,.12,.24,.24,.37,.35,.12,.1,.24,.2,.36,.29,.13,.1,.25,.22,.39,.31,.12,.09,.25,.18,.38,.27,.13,.1,.26,.19,.4,.28,.13,.09,.26,.16,.39,.24,.13,.08,.26,.17,.4,.24,.14,.08,.27,.14,.41,.22,.14,.07,.27,.15,.41,.21,.14,.07,.27,.12,.41,.19,.14,.06,.28,.13,.41,.19,.13,.06,.27,.1,.4,.15,.14,.05,.28,.11,.41,.16,.14,.05,.27,.09,.4,.13,.14,.04,.27,.09,.41,.13,.13,.04,.26,.07,.39,.1,.13,.03,.27,.07,.4,.1,.13,.03,.26,.05,.39,.07,.13,.02,.26,.05,.39,.07,.12,.02,.24,.03,.37,.04,.13,.01,.25,.03,.38,.04,.12,0,.23,0,.34,.01,.13,0,.26,.01,.39,.01,1.46,0,2.74-.24,3.64-.47,1.64-.41,2.9-1.05,3.72-1.54-.09-.08-.18-.17-.24-.23-.02-.02-.04-.04-.06-.06Z"/><path class="cls-1" d="M79.04,53.77c-1.15,0-2.28,.08-3.38,.21-3.74,.45-7.18,1.64-10.08,3.53-1.41,.92-3.21,2.61-4.91,4.84-2.48,3.27-4.75,7.74-5.26,12.85-.57,5.7,1.2,10.92,5.26,15.51,.41,.46,.82,.91,1.27,1.36,3.99,3.95,8.59,6.27,13.71,6.94,1.03,.14,2.08,.21,3.15,.21,9.76,0,14.61-3.07,17.71-5.28,.26-.18,.4-.45,.42-.72-2.02-1.28-3.93-2.67-5.69-4.15-.05-.04-.16-.14-.29-.26-.18,.08-.36,.15-.54,.23-.03,.02-.05,.04-.08,.06-.94,.57-2.48,1.36-4.46,1.86-.55,.14-1.29,.29-2.15,.4-.7,.14-1.38,.22-2.02,.22-8.4,0-15.33-4.22-16.81-12-1-5.35,.6-10.23,3.17-13.32,2.59-3.12,7.07-4.9,12.3-4.9,1.23,0,2.43,.1,3.55,.3,.06,.01,.13,.03,.2,.05,4.68,.72,8.21,3.16,10.18,4.87,.15,.1,.3,.2,.44,.3,.26-.7,.66-1.36,1.24-1.9,.4-.38,.8-.76,1.14-1.09,0-.28,0-.66,.01-1.17v-3.25c-4.96-3.55-11.39-5.71-18.08-5.71Z"/><path class="cls-1" d="M153.52,61.62c-1.08-1.33-2.31-2.55-3.64-3.61-.6-.53-1.17-.98-1.69-1.32-1.43-.94-3-1.7-4.67-2.29-1.6-.6-3.28-1.02-4.99-1.23-.58-.07-1.16-.12-1.74-.14-.68-.05-1.37-.08-2.07-.08-6.05,0-12.7,2.31-17.65,5.4v7.15c0,.41-.1,.82-.29,1.18,3.34-2.35,9.06-5.11,13.07-5.83,1.13-.2,2.77-.32,4-.32,5.23,0,9.27,1.81,11.85,4.92,2.57,3.09,4.17,7.97,3.17,13.32-1.48,7.77-8.42,12-16.81,12-3.15,0-5.81-.73-8.67-1.97-1.34,1.96-2.85,3.84-4.5,5.65,3.91,2.08,9.6,3.97,16.06,3.97,.72,0,1.43-.04,2.13-.1,.34,0,.68-.01,1.01-.03,6.18-.33,11.68-3.4,15.42-8.08,3.15-3.94,5.05-9.02,5.05-14.58s-1.93-10.16-5.05-14Z"/><path class="cls-1" d="M132.59,63.18s-.06,0-.1,0c-8.16,.12-13.66,5.6-13.71,5.66l-.43,.51c.18,.1,.35,.2,.54,.31l.14,.08,.07,.04c2.06,1.14,3.28,1.8,4.88,2.39,.98-.94,3.3-2.82,6.58-2.99,0,0,3.1-.34,5.3,1.11,.85,.57,1.54,1.3,1.97,2.14,.64,1.25,.68,2.66,.16,4.14-.23,.78-.63,1.5-1.16,2.13-.02,.03-.04,.06-.07,.08-.03,.04-.07,.08-.1,.11-.56,.64-1.2,1.11-1.88,1.43-.98,.5-2.12,.79-3.35,.79-1.08,0-2.34-.26-3.53-.68-.48,2.29-1.75,4.37-4.06,5.65,.91,.45,2.68,1.22,4.83,1.7,.9,.2,2.16,.4,3.59,.42,.1,0,.2,0,.31,0,3.06,0,5.86-1.05,8.07-2.78,1.42-1.18,2.72-2.82,3.76-5.09,.37-.81,.63-1.65,.82-2.48,.13-.7,.2-1.42,.2-2.16,0-6.91-5.32-12.68-12.84-12.5Z"/></g><g><path class="cls-1" d="M168.78,114.8c-2.37,.3-5.58,.96-9.44,1.79-3.04,.66-6.5,1.42-10.28,2.21-10.71,2.23-24.04,4.64-38.11,5.24-1.49,.02-3,.04-4.55,.04-3.99,0-7.74-.09-11.28-.25-.35-.02-.69-.04-1.04-.06-1.8-.14-3.61-.32-5.41-.55-20.25-2.58-30.95-5.24-35.2-13.73-.62-1.24-1.76-3.57-1.76-6,0-.14-.03-28.05-.03-28.05v-1.15c0-.06-.02-.11-.03-.17-.08-1.18-.39-2.31-.92-3.3-.98-1.86-2.65-3.28-4.67-3.96-.01,0-.03,0-.05-.01,1.81-1.92,3.26-4.18,4.23-6.68,.91-2.33,1.43-4.86,1.43-7.52V13.21c0-.63-.51-1.15-1.15-1.15l-.32,.04c-.46,.07-.95,.14-1.45,.2-1.42,.16-2.96,.25-4.58,.25s-3.2-.09-4.63-.26c-.48-.06-.94-.12-1.39-.19l-.32-.04c-.64,0-1.15,.51-1.15,1.15v12.34L13.83,14.35c-.48-.23-1.06-.02-1.28,.46l-.08,.26c-.11,.37-.23,.74-.35,1.12-.39,1.15-.87,2.37-1.46,3.62-.58,1.23-1.2,2.37-1.83,3.39-.22,.36-.45,.71-.67,1.04l-.15,.22c-.22,.48-.02,1.06,.47,1.29l3.04,1.43,.18,.08,3.41,1.61,15.06,7.29h-11.86c-.31,0-.59,.19-.7,.47-.2,.48-.42,.98-.66,1.47-1.44,2.95-3.43,5.78-5.9,8.41-2.71,2.8-5.81,5.13-9.18,6.93-.48,.24-.93,.45-1.39,.65-.25,.11-.42,.33-.46,.61-.04,.26,.06,.52,.27,.69l9.27,7.78c.14,.12,.33,.19,.51,.19l.27-.02,.16-.11c6.23-4.16,12.27-9.26,16.04-15.14,2.53-3.96,4.54-7.25,6.01-10.78l3.17,1.54,.99,.46v13.32c0,5.29-2,10.11-5.27,13.76H12.85c-.53,0-.97,.43-.97,.96l.04,.27c.04,.23,.06,.47,.1,.72,.08,.71,.19,1.89,.25,3.39,.01,.32,.02,.68,.03,1.03,0,1.33-.08,2.61-.21,3.78-.05,.42-.1,.83-.17,1.22l-.04,.27c0,.2,.07,.37,.18,.52,.17,.26,.45,.44,.79,.44h22.74c.62,0,1.11,.5,1.11,1.11v26.37c0,.53-.35,.99-.87,1.12-5.03,1.3-31.74,8.17-29.17,14.54,2.48,6.15,9.46,17.91,11.25,20.88,.26,.42,.75,.64,1.23,.53,3.18-.73,15.28-4.02,27.87-14.25,.58-.47,.46-1.25-.03-1.81-1.63-1.92-2.34-2.98-3.86-6.44-.3-.67-1.03-1.03-1.67-.67l-13.24,7.48c-.58,.32-1.3,.1-1.6-.48-.28-.56-.07-1.24,.48-1.54l15.54-8.53c1.17,1.81,2.64,3.58,4.37,5.28,.41,.43,.84,.84,1.3,1.21,3.19,2.84,7.12,5.4,11.6,7.41,.07,.03,.15,.07,.22,.1,7.93,3.82,21.58,6.4,41.37,6.77,13.21,.5,31.88,.45,59.59-.4,.47-.01,.9-.32,1.06-.77,.53-1.5,1.43-6.19,2.92-10.35,1.46-4.09,3.51-7.63,4.86-10.07,.46-.83-.21-1.82-1.15-1.7Z"/><path class="cls-1" d="M61.81,115.48l.32-.04c.44-.07,.91-.13,1.39-.19,1.43-.17,3-.26,4.63-.26s3.16,.09,4.58,.25c.5,.06,.99,.12,1.45,.19l.32,.04c.63,0,1.15-.51,1.15-1.15v-13.64c-5.57-.68-10.56-3.16-14.88-7.43-.04-.04-.07-.08-.11-.11v21.19c0,.63,.51,1.15,1.15,1.15Z"/><path class="cls-1" d="M126.23,115.48s11.79-.03,12.3-.08c1.68-.16,3.29-.56,4.79-1.18,5.99-2.48,10.2-8.38,10.2-15.26v-6.26c-4.16,4.42-9.92,7.19-16.28,7.26-1.23,1.76-3.26,2.92-5.58,2.92h-10.6c1.78,2.24,3.18,4.8,4.09,7.58,.53,1.61,.9,3.28,1.08,5.02Z"/><path class="cls-1" d="M64.67,56.13c3.16-2.06,6.91-3.35,10.98-3.81v-4.02c0-.61,.5-1.11,1.11-1.11h21.72c.27,0,.5,.11,.7,.26v15.28c0,1.37-.02,1.91-.03,2.06-.4,.39-1.09,1.06-1.79,1.71-1.06,.99-1.19,2.6-.32,3.75l.09,.12s.05,.05,.07,.07c1.9,2.37,4.29,4.8,6.72,6.83,.07,.06,.17,.1,.26,.1s.19-.03,.26-.09c4.54-3.69,8.06-7.07,10.5-11.59,.03-.06,.05-.13,.05-.2v-18.04c.18-.16,.42-.26,.69-.26h21.72c.61,0,1.11,.5,1.11,1.11v3.21c1.89,.22,3.75,.66,5.54,1.33,1.8,.64,3.49,1.47,5.02,2.47,.57,.37,1.19,.85,1.85,1.44,.93,.74,1.78,1.54,2.58,2.38v-16.27c0-4.56-3.69-8.25-8.25-8.25h-25.48c.07-.1,.14-.2,.21-.29,.24-.32,.48-.64,.73-.93l.17-.22c.27-.46,.11-1.05-.35-1.32l-6.84-4.01,23.54-15.26c.31-.03,.57-.21,.72-.47,.08-.14,.14-.3,.14-.48l-.03-.27c-.07-.39-.12-.8-.17-1.22-.14-1.19-.21-2.49-.21-3.85,0-1,.05-1.94,.13-2.86,.03-.35,.05-.71,.09-1.04,.05-.4,.1-.79,.16-1.17l.04-.27c0-.53-.43-.96-.96-.96h-60.11c-.53,0-.97,.43-.97,.96l.04,.27c.06,.37,.11,.77,.16,1.17,.14,1.21,.22,2.52,.22,3.89s-.07,2.65-.21,3.85c-.05,.42-.1,.83-.17,1.22l-.04,.27c0,.53,.43,.96,.97,.96h37.02l-12.52,8.11-8.18-4.79c-.46-.27-1.06-.12-1.32,.35l-.11,.25c-.13,.35-.29,.72-.45,1.09-.49,1.11-1.08,2.28-1.78,3.47-.69,1.17-1.41,2.25-2.13,3.21-.25,.33-.51,.66-.76,.97l-.17,.21c-.27,.46-.12,1.05,.34,1.32l13.34,7.81h-30.87v.03c-.18-.01-.36-.03-.54-.03-4.55,0-8.25,3.69-8.25,8.25v16.91c1.42-1.62,2.84-2.86,4.01-3.63Z"/><path class="cls-1" d="M102.08,78.78l-.2-.16c-2.52-2.1-4.76-4.39-6.64-6.82-.1-.14-.29-.2-.45-.15-3.66,.29-6.52,3.84-6.52,8.11,0,2.02,.64,3.96,1.81,5.46,.02,.03,.04,.05,.06,.07,.54,.53,2.22,2.04,2.43,2.21,1.76,1.49,3.72,2.9,5.81,4.21,.07,.04,.14,.06,.22,.06,.14,0,.27-.07,.35-.19,1.87-2.9,4.33-5.57,7.96-8.67,.1-.09,.15-.21,.15-.34-.01-.13-.08-.25-.19-.32-.94-.6-1.7-1.11-2.39-1.6-.76-.55-1.55-1.16-2.4-1.86Z"/><path class="cls-1" d="M115.22,69.87s-.07-.05-.08-.05c-.19-.12-.44-.07-.57,.11-2.14,3.12-4.81,6.03-7.94,8.64-.1,.08-.15,.2-.15,.33,0,.13,.06,.24,.16,.32,.23,.18,.47,.35,.71,.53l.24,.17c1.85,1.36,3.74,2.56,5.62,3.58,.14,.08,.29,.15,.43,.23l.41,.2c.75,.39,1.44,.72,2.14,1.04,.04,.02,.07,.03,.11,.03,.45,.13,.95,.22,1.51,.28h.11c.61,0,1.21-.02,1.81-.04,.01,0,.03,0,.04,0l.27-.04c.23-.03,.45-.08,.67-.13l.09-.02c.07-.02,.14-.03,.21-.05,.32-.09,.64-.19,.97-.32,1.44-.56,2.53-1.52,3.23-2.85,.21-.4,.38-.83,.51-1.28,.13-.43,.22-.89,.27-1.36,.15-1.31,.01-2.71-.4-4.05-.02-.17-.14-.31-.31-.36-1.09-.32-1.98-.63-2.8-.97-.52-.22-1.05-.46-1.62-.74-.84-.42-1.76-.92-2.78-1.49l-.23-.13c-.93-.52-1.76-1.02-2.55-1.53l-.25,.33h0s.14-.4,.14-.4Z"/><path class="cls-1" d="M100.83,120.56l.33-.05c.44-.07,.9-.13,1.37-.19,2.93-.34,6.17-.34,9.12,0,.49,.06,.98,.12,1.44,.2l.37,.05c.86,0,1.56-.7,1.56-1.56v-.14s.01-.08,.01-.11v-21.52c0-.98,.02-1.52,.03-1.83,2.62-2.53,4.93-5.29,6.89-8.2,.1-.14,.07-.32-.03-.46-.1-.14-.3-.2-.47-.15-.09,.03-.19,.05-.35,.08-.28,.07-.54,.12-.8,.16-.13,.02-.26,.04-.39,.06-.26,.03-.52,.05-.87,.07-.09,0-.18,0-.27,.01h-.16c-.34,0-.66-.01-.96-.04-.59-.06-1.16-.16-1.72-.31-.15-.03-.3-.08-.5-.17-.67-.3-1.37-.65-2.16-1.06l-.38-.19c-.16-.08-.32-.16-.47-.25-.95-.51-1.92-1.09-2.89-1.7-.15-.1-.35-.08-.49,.03-3.61,2.98-7.29,6.38-9.79,11-.03,.06-.05,.13-.05,.2v24.53c0,.86,.66,1.57,1.62,1.56Z"/></g></g></g></svg>