<?xml version="1.0" encoding="utf-8"?>
<!-- Generator: Adobe Illustrator 27.0.1, SVG Export Plug-In . SVG Version: 6.00 Build 0)  -->
<svg version="1.1" id="svg2" xmlns:svg="http://www.w3.org/2000/svg"
	 xmlns="http://www.w3.org/2000/svg" xmlns:xlink="http://www.w3.org/1999/xlink" x="0px" y="0px" viewBox="0 0 404 301"
	 style="enable-background:new 0 0 404 301;" xml:space="preserve">
<style type="text/css">
	.st0{fill-rule:evenodd;clip-rule:evenodd;fill:#1B689D;}
</style>
<path id="path10" class="st0" d="M66.5,93.3v124.4c0,3.4-0.4,5.1,0.7,6.7c0.6,1.1,1.7,1.7,2.6,1.7c1.3,0,2.4-0.6,3.2-1.9
	c1.1-1.7,0.9-3.4,0.9-6.9V93.3h5.8v126.9c0,8.6-3.2,12.9-9.9,12.9c-2.8,0-5.2-0.9-7.1-3c-1.9-2.1-2.8-5.2-2.8-9.7v-127H66.5
	L66.5,93.3z"/>
<path id="polygon12" class="st0" d="M128.5,232.3l-9.4-85.4v85.4h-5.1v-139h6.7l0,0l9.6,80.2V93.3h4.3v139H128.5z"/>
<path id="polygon14" class="st0" d="M185.3,155.8v4.9h-9.2v65.8h10.5v5.8h-18.7v-139h17.4v6l0,0h-9.2v56.6H185.3z"/>
<path id="polygon16" class="st0" d="M367.3,73.6v11.6H39.9V73.6l0,0H367.3z"/>
<path id="polygon18" class="st0" d="M367.3,242.6v11.6H39.9v-11.6l0,0H367.3z"/>
<path id="polygon20" class="st0" d="M385.3,266v11.6H18.9V266l0,0H385.3z"/>
<path id="polygon22" class="st0" d="M403.6,288.7v11.8H0.4v-11.8l0,0H403.6z"/>
<path id="polygon24" class="st0" d="M202,0.5l164.5,46.8v12.4l-166-45.2L39.2,60.5l0,0V48.1L202,0.5z"/>
<path id="polygon26" class="st0" d="M329.2,60.5h-33.9l-92-24.9l-91.8,24.2l-35,0.7l0,0l127.2-36.5L329.2,60.5z"/>
<path id="path28" class="st0" d="M232,133.4h7.1v-27c0,0-0.2-7.9-2.1-10.1c-1.9-2.1-4.1-3.9-9-3.9c-4.7,0.2-5.8,1.5-7.5,3.6
	c-1.9,2.1-2.6,5.6-2.6,9.4c0,3.7,0.2,20.4,0.7,26c0.6,5.4,5.8,27.5,8.8,38.2c2.8,10.9,4.1,16.3,4.3,19.3c0.2,3.2,0.6,13.9,0.2,19.1
	c-0.2,5.2,0,12.6,0,12.6s0.4,5.8-3,5.8c-3.6,0-3.2-5.8-3.2-5.8v-33h-7.1v32.8c0,0-1.9,12,9.4,12c11.4,0,11.4-10.7,11.4-10.7v-30
	c0,0-0.6-9.9-2.4-16.9c-1.9-6.7-7.9-28.3-9.2-34.3c-1.5-6.4-2.1-15.7-2.1-24.2c0-8.4,0.2-13.7,0.2-13.7s-0.2-3.9,3-3.9
	c3,0,2.8,4.1,2.8,4.1L232,133.4L232,133.4z"/>
<path id="path30" class="st0" d="M286.5,133.7h6.2v-32.4c0-5.1-2.8-10.1-9.7-10.1c-6.4,0-10.1,4.7-10.1,10.3v121.8
	c0,5.4,3.7,10.1,10.1,10.1c6.9,0,9.7-4.9,9.7-9.9v-36.5h-6.2v36.4c0,1.9,0.2,4.1-3.6,4.1c-3.9,0-3.6-3.4-3.6-4.7V101.9
	c0-1.3-0.4-4.7,3.6-4.7c3.8,0,3.6,2.4,3.6,4.3V133.7L286.5,133.7z"/>
<path id="path32" class="st0" d="M338.2,91.2c-6.4,0-10.9,4.7-10.9,10.3v121.8c0,5.4,4.5,10.1,10.9,10.1c6.9,0,10.5-4.9,10.5-9.9
	V101.3C348.7,96.3,345.2,91.2,338.2,91.2L338.2,91.2z M342.5,223.3c0,1.9-0.6,4.1-4.3,4.1c-3.9,0-4.3-3.4-4.3-4.7V101.9
	c0-1.3,0.4-4.7,4.3-4.7c3.8,0,4.3,2.4,4.3,4.3V223.3L342.5,223.3z"/>
</svg>
